<svg width="88" height="81" viewBox="0 0 88 81" fill="none" xmlns="http://www.w3.org/2000/svg">
<g id="logo">
<g id="Ellipse 1" filter="url(#filter0_d)">
<ellipse cx="44" cy="36.3636" rx="40" ry="36.3636" fill="#48759B"/>
</g>
<path id="JPL" d="M27.9824 41.4463V27.2959C27.9824 26.6123 27.9141 26.1224 27.7773 25.8262C27.6406 25.5072 27.4014 25.3135 27.0596 25.2451C26.695 25.1768 26.3646 25.0856 26.0684 24.9717C25.7721 24.8577 25.624 24.6413 25.624 24.3223C25.624 23.7982 25.9658 23.5361 26.6494 23.5361H29.8281C30.5801 23.5361 30.9561 23.9007 30.9561 24.6299V41.5146C30.9561 43.9072 30.3978 45.6276 29.2812 46.6758C28.1875 47.724 26.752 48.248 24.9746 48.248C23.0833 48.248 21.625 47.8493 20.5996 47.0518C19.597 46.2542 19.0957 45.0352 19.0957 43.3945H22.1035C22.1263 44.3743 22.3883 45.0693 22.8896 45.4795C23.391 45.8669 24.0745 46.0605 24.9404 46.0605C25.8747 46.0605 26.6152 45.7188 27.1621 45.0352C27.709 44.3288 27.9824 43.1325 27.9824 41.4463ZM35.3994 25.2451C34.9893 25.1312 34.6816 25.0059 34.4766 24.8691C34.2943 24.7324 34.2031 24.5387 34.2031 24.2881C34.2031 23.7868 34.5221 23.5361 35.1602 23.5361H42.8506C45.3343 23.5361 47.2826 24.1514 48.6953 25.3818C50.1081 26.6123 50.8145 28.2529 50.8145 30.3037C50.8145 32.6735 50.0511 34.4622 48.5244 35.6699C46.9977 36.8548 44.9583 37.4473 42.4062 37.4473H40.7656C40.2643 37.4473 40.0137 37.0827 40.0137 36.3535C40.0137 35.6243 40.2529 35.2598 40.7314 35.2598H42.2354C43.876 35.2598 45.1976 34.8382 46.2002 33.9951C47.2256 33.152 47.7383 31.9215 47.7383 30.3037C47.7611 28.891 47.2826 27.763 46.3027 26.9199C45.3229 26.0768 44.195 25.6553 42.9189 25.6553H40.7998C39.7744 25.6553 39.2617 26.0882 39.2617 26.9541V48.043H36.2881V27.2959C36.2881 26.5895 36.2197 26.0996 36.083 25.8262C35.9463 25.5299 35.7184 25.3363 35.3994 25.2451ZM57.2402 44.3174C57.2402 45.2061 57.7529 45.6504 58.7783 45.6504H63.3926C64.2812 45.6504 64.9079 45.4681 65.2725 45.1035C65.637 44.7161 65.8877 43.9984 66.0244 42.9502C66.0928 42.4717 66.389 42.2552 66.9131 42.3008C67.46 42.3236 67.7334 42.5742 67.7334 43.0527L67.4941 48.043H54.2666V27.3301C54.2666 26.6465 54.1982 26.1566 54.0615 25.8604C53.9248 25.5413 53.6855 25.3477 53.3438 25.2793C52.9792 25.2109 52.6488 25.1198 52.3525 25.0059C52.0563 24.8919 51.9082 24.6755 51.9082 24.3564C51.9082 23.8324 52.25 23.5703 52.9336 23.5703H56.1123C56.8643 23.5703 57.2402 23.9349 57.2402 24.6641V44.3174Z" fill="white"/>
</g>
<defs>
<filter id="filter0_d" x="0" y="0" width="88" height="80.7273" filterUnits="userSpaceOnUse" color-interpolation-filters="sRGB">
<feFlood flood-opacity="0" result="BackgroundImageFix"/>
<feColorMatrix in="SourceAlpha" type="matrix" values="0 0 0 0 0 0 0 0 0 0 0 0 0 0 0 0 0 0 127 0"/>
<feOffset dy="4"/>
<feGaussianBlur stdDeviation="2"/>
<feColorMatrix type="matrix" values="0 0 0 0 0 0 0 0 0 0 0 0 0 0 0 0 0 0 0.25 0"/>
<feBlend mode="normal" in2="BackgroundImageFix" result="effect1_dropShadow"/>
<feBlend mode="normal" in="SourceGraphic" in2="effect1_dropShadow" result="shape"/>
</filter>
</defs>
</svg>
